<?xml version="1.0" encoding="UTF-8" standalone="no"?>
<svg xmlns:cc="http://creativecommons.org/ns#" xmlns:dc="http://purl.org/dc/elements/1.1/"
    xmlns:inkscape="http://www.inkscape.org/namespaces/inkscape"
    xmlns:rdf="http://www.w3.org/1999/02/22-rdf-syntax-ns#"
    xmlns:sodipodi="http://sodipodi.sourceforge.net/DTD/sodipodi-0.dtd" height="512pt" id="svg5362"
    preserveAspectRatio="xMidYMid" version="1.1" viewBox="0 0 682.66667 682.66667" width="512pt"
    xmlns="http://www.w3.org/2000/svg"
    inkscape:export-filename="/Users/peter.rosenberg/Downloads/ic_launcher.png"
    inkscape:export-xdpi="10.125" inkscape:export-ydpi="10.125"
    inkscape:version="0.91+devel+osxmenu r12922" sodipodi:docname="logo.svg">
    <metadata id="metadata5394">
        <rdf:RDF>
            <cc:Work rdf:about="">
                <dc:format>image/svg+xml</dc:format>
                <dc:type rdf:resource="http://purl.org/dc/dcmitype/StillImage" />
                <dc:title></dc:title>
            </cc:Work>
        </rdf:RDF>
    </metadata>
    <defs id="defs5392" />
    <sodipodi:namedview bordercolor="#666666" borderopacity="1" gridtolerance="10"
        guidetolerance="10" id="namedview5390" objecttolerance="10" pagecolor="#ffffff"
        showgrid="false" units="pt" inkscape:current-layer="svg5362" inkscape:cx="128"
        inkscape:cy="432.36195" inkscape:pageopacity="0" inkscape:pageshadow="2"
        inkscape:window-height="593" inkscape:window-maximized="0" inkscape:window-width="1247"
        inkscape:window-x="0" inkscape:window-y="23" inkscape:zoom="0.41053452" />
    <g id="g5990" transform="translate(3.3333322e-8,23.602283)">
        <g id="g5983" transform="translate(2.3834128)">
            <path style="fill:#00979c;stroke-width:2.36596441"
                d="m 604.09408,94.599066 4.31315,0 0,11.340074 3.05919,0 0,-11.340074 4.34865,0 0,-2.81549 -11.72099,0 0,2.81549"
                id="path5380" inkscape:connector-curvature="0" />
            <path style="fill:#00979c;stroke-width:2.36596441"
                d="m 626.45954,91.783576 -2.95036,9.648404 -3.05209,-9.648404 -3.99138,0 0,14.155564 2.87701,0 0,-9.042724 2.85335,9.042724 2.62622,0 2.70667,-8.808484 0,8.808484 2.86281,0 0,-14.155564 -3.93223,0"
                id="path5382" inkscape:connector-curvature="0" />
            <path style="fill:#00979c;stroke-width:2.36596441"
                d="m 485.70122,365.70783 c -38.53682,0 -71.48524,-12.99387 -100.4825,-39.57075 -17.91272,-16.4127 -32.68107,-36.52103 -46.2688,-57.42906 -13.58537,20.90803 -28.35609,41.01636 -46.26644,57.42906 -31.15738,28.55482 -66.87871,41.4304 -109.18688,39.35545 -80.68176,-0.35016 -146.211869,-64.023 -146.211869,-142.23705 0,-78.42935 65.889739,-142.237044 146.879069,-142.237044 44.31924,0 81.63287,14.66661 114.06314,44.835024 15.57751,14.49153 28.72754,31.30171 40.72298,48.89029 11.99544,-17.58858 25.14783,-34.39876 40.72298,-48.89029 32.43027,-30.168414 69.74389,-44.835024 114.06314,-44.835024 80.99169,0 146.87907,63.807694 146.87907,142.237044 0,78.21405 -65.52775,141.88689 -146.21187,142.23705 -2.93143,0.14432 -5.83447,0.2153 -8.70202,0.2153 l 0,0 z M 368.45586,221.35798 c 16.07436,26.08003 31.67553,50.35482 50.67896,67.76832 21.44983,19.65879 44.05898,27.74566 73.28574,26.20069 l 1.31548,-0.0355 c 53.30754,0 96.67803,-41.28608 96.67803,-92.03602 0,-50.74757 -43.37049,-92.03601 -96.67803,-92.03601 -31.46969,0 -56.84939,9.97491 -79.87023,31.38925 -17.19346,15.99628 -31.38925,36.49027 -45.40995,58.74926 l 0,0 z M 184.1638,131.21947 c -53.30755,0 -96.678037,41.28844 -96.678037,92.03601 0,50.74994 43.370487,92.03602 96.678037,92.03602 l 1.31784,0.0355 c 29.22912,1.54497 51.83355,-6.5419 73.28338,-26.20069 19.00343,-17.4135 34.60696,-41.68829 50.67896,-67.76832 -14.02071,-22.25899 -28.21649,-42.75298 -45.40759,-58.74926 -23.0232,-21.41434 -48.4029,-31.38925 -79.87259,-31.38925 l 0,0 z"
                id="path5384" inkscape:connector-curvature="0" />
            <path style="fill:#00979c;stroke-width:2.36596441"
                d="m 500.37493,205.01153 0,-27.22278 -28.33479,0 0,27.22278 -27.22042,0 0,28.19757 27.22042,0 0,27.42389 28.33479,0 0,-27.42389 27.22279,0 0,-28.19757 -27.22279,0"
                id="path5386" inkscape:connector-curvature="0" />
            <path style="fill:#00979c;stroke-width:2.36596441"
                d="m 143.40296,204.67083 89.47368,0 0,29.08244 -89.47368,0 0,-29.08244 z"
                id="path5388" inkscape:connector-curvature="0" />
        </g>
        <text
            style="font-style:normal;font-weight:normal;font-size:94.63857269px;line-height:125%;font-family:sans-serif;letter-spacing:0px;word-spacing:0px;fill:#00979c;fill-opacity:1;stroke:none;stroke-width:2.36596441px;stroke-linecap:butt;stroke-linejoin:miter;stroke-opacity:1"
            id="text5951" x="153.32552" y="551.55304" sodipodi:linespacing="125%"
            xml:space="preserve"><tspan
         style="font-style:normal;font-variant:normal;font-weight:bold;font-stretch:normal;font-size:160px;line-height:125%;font-family:sans-serif;-inkscape-font-specification:'sans-serif, Bold';font-variant-ligatures:none;font-variant-caps:normal;font-variant-numeric:normal;text-align:start;writing-mode:lr-tb;text-anchor:start;fill:#00979c;fill-opacity:1;stroke-width:2.36596441px"
         id="tspan5953"
         x="153.32552"
         y="551.55304"
         sodipodi:role="line">Push</tspan></text>
    </g>
</svg>
